# xmcd CD database file
#
# Track frame offsets:
#	150
#	16595
#	30620
#	46573
#	58626
#	74048
#	87956
#
# Disc length: 1786 seconds
#
# Revision: 0
# Processed by: cddbd v1.5.2PL0 Copyright (c) Steve Scherf et al.
# Submitted via: CDex 1.51
#
DISCID=4e06f807
DTITLE=Burns and Poe - Burns and Poe (Disk 2)
DYEAR=2011
DGENRE=Country
TTITLE0=Second Chance
TTITLE1=Slow and Easy
TTITLE2=It's Alwaus A Woman
TTITLE3=Move On
TTITLE4=Baby Can You Do It Again
TTITLE5=Macon, GA
TTITLE6=Bonus Track
EXTD=YEAR: 2011
EXTT0=
EXTT1=
EXTT2=
EXTT3=
EXTT4=
EXTT5=
EXTT6=
PLAYORDER=
